<svg style="background:0 0" xmlns="http://www.w3.org/2000/svg"  width="32" height="32" viewBox="285 308 455 412" xml:space="preserve"><path fill="#a23091" d="M491.25 531.854c-1.216.736-2.722 1.223-3.604 2.247-7.137 8.282-13.957 16.842-21.25 24.982-19.865 22.175-45.769 24.074-68.375 4.763-11.773-10.056-20.931-22.221-25.671-37.427 4.107 1.667 7.643 4.54 11.637 5.495 10.442 2.498 20.224-1.242 27.736-7.693 9.958-8.552 18.359-18.918 27.701-28.654 11.05-12.788 21.827-25.428 32.915-38.253 4.516-5.683 8.72-11.182 13.163-16.889 1.047-1.164 1.854-2.12 2.966-3.25 1.53-1.808 2.755-3.445 4.182-5.294 1.024-1.295 1.847-2.377 2.99-3.564 1.153-1.296 1.984-2.487 3.1-3.865 2.877-3.235 5.47-6.282 8.415-9.408 1.618-1.321 2.884-2.565 4.151-3.807 2.281-2.235 3.035-4.559.41-7.078.252-1.109.718-2.216.722-3.325.077-19.818.066-39.636.163-59.454.015-2.957-.455-5.143-3.157-7.174-4.164-3.13-4.042-9.171-.393-12.81 3.416-3.406 8.778-3.429 12.116-.05 3.542 3.585 3.71 9.897-.479 12.83-3.241 2.27-3.351 4.86-3.337 8.076.076 17.986.073 35.973.096 53.96.002 1.81 0 3.62.576 5.664 3.972-4.535 9.461-7.684 9.183-15.147-.365-9.807.397-19.652.172-29.468-.097-4.226 2.948-6.425 4.227-9.581 1.084-2.673-1.364-6.588-.857-9.729.726-4.495 5.058-6.868 9.407-6.258 4.248.596 7.498 4.267 7.627 8.616.125 4.223-2.926 8.06-7.155 9.001-5.7 1.267-8.06 4.072-8.146 9.918-.11 7.493-.124 14.988-.202 23.188.111 1.244.245 1.784.378 2.323l1.002-.99c6.578-7.691 13.08-15.45 19.755-23.058 8.199-9.347 17.962-16.278 30.438-18.674 14.527-2.791 26.93 2.176 37.94 11.106 12.892 10.456 22.477 23.462 27.962 39.444-9.209-7.906-19.388-7.743-29.705-3.757-16.77 6.478-27.11 20.072-36.916 34.436-11.696 13.486-23.087 26.963-34.768 40.598-4.354 4.974-8.418 9.791-12.71 14.86-1.136 1.262-2.044 2.273-3.216 3.448-1.428 1.76-2.593 3.355-4.024 5.177-1.084 1.049-1.903 1.871-2.984 2.848-1.406 1.766-2.548 3.378-3.96 5.222a3928 3928 0 0 0-15.744 17.736c-3.293 4.099-6.587 8.198-10.319 12.726-1.678 2.284-2.918 4.139-4.157 5.993m81.715-152.805c-.908 3.33 1.584 6.88-1.786 10.244-9.166 9.148-17.903 18.727-26.724 28.216-3.352 3.606-6.468 7.432-9.692 11.158l2.121 1.971c4.803-5.335 9.492-10.778 14.436-15.98 7.408-7.795 14.904-15.514 22.59-23.032 1.406-1.375 3.887-2.256 5.891-2.294 5.088-.094 8.326-1.895 9.146-5.906.938-4.586-1.198-8.698-5.247-10.105-4.073-1.415-8.305.556-10.735 5.728m-134.35 164.009c7.885 1.564 12.01-2.463 11.008-10.361-.18-1.42.857-3.365 1.928-4.513 9.186-9.847 18.553-19.527 27.758-29.358 1.916-2.047 3.386-4.513 5.062-6.785l-1.168-1.056c-1.214 1.146-2.466 2.255-3.636 3.444-10.264 10.428-20.47 20.914-30.832 31.245-1.052 1.049-3.084 1.822-4.527 1.642-4.53-.565-8.042.761-9.926 4.876-2.034 4.442-.455 8.035 4.333 10.866M521.5 421.995c-4.155 4.757-9.553 8.516-12.041 14.677 1.58-.466 2.766-1.295 3.764-2.308a8881 8881 0 0 0 31.397-32.024c1.998-2.05 3.605-3.711 7.168-2.894 4.66 1.069 8.85-3.055 8.962-7.79.103-4.375-3.806-8.186-8.358-8.15-4.5.037-8.052 3.762-7.459 8.686.452 3.746-.746 6.258-3.267 8.801-6.666 6.726-13.127 13.653-20.166 21.002m-46.116 108.102c.311-.732 1.072-1.644.863-2.17-1.994-5.012 1.46-7.6 4.369-10.574 8.698-8.892 17.354-17.827 25.921-26.845 1.514-1.593 2.519-3.67 3.758-5.522-1.56-.392-2.166-.133-2.596.302-10.139 10.267-20.328 20.487-30.337 30.88-2.68 2.782-5.216 4.385-9.403 3.927-4.263-.466-7.13 2.332-7.852 6.565-.772 4.52 1.881 7.349 5.864 8.46 3.964 1.106 7.631.374 9.413-5.023m85.104-110.449c3.325.251 5.405 2.511 4.234 5.243-.83 1.94-4.062 2.853-7.112 4.79l-6.767 10.153c5.372-3.359 10.188-6.721 14.319-10.781 1.58-1.552 2.53-4.916 2.034-7.054-.43-1.861-3.186-4.215-5.121-4.423-2.17-.234-4.954 1.25-6.78 2.801-2.315 1.965-3.877 4.797-5.866 7.168-2.108 2.512-4.337 4.923-6.513 7.379l1.11 1.017c3.92-3.442 7.97-6.751 11.7-10.388 1.643-1.6 2.637-3.865 4.762-5.905m-55.164 47.909c4.068.964 8.234.53 9.93-3.432 1.127-2.63.831-6.48-.208-9.268-1.227-3.291-4.826-5.199-8.255-3.886-2.622 1.004-5.657 3.3-6.613 5.757-1.644 4.227.16 8.153 5.146 10.829m-45.067 21.486c.865 3.82 3.459 6.076 7.136 5.418 2.246-.402 4.518-2.42 6.042-4.307.715-.884-.311-3.174-.392-3.735l-6.59 4.95c-1.156-1.561-3.399-3.222-3.266-4.664.406-4.417 3.993-3.85 8.543-2.935-1.39-1.88-2.022-3.558-2.765-3.609-5.592-.387-8.401 2.33-8.708 8.882m77.735-144.586c1.734-1.04 4.028-1.736 4.968-3.264.479-.779-1.115-3.687-2.449-4.448-1.02-.583-3.658.194-4.597 1.243-2.033 2.272-1.072 4.536 2.078 6.469m-23.258-12.571c1.545-1.35 3.547-2.47 4.395-4.169.31-.62-1.918-3.34-3.367-3.744-1.163-.325-4.179 1.488-4.13 2.202.127 1.888 1.47 3.694 3.102 5.71"/><path fill="#1f9fda" d="M505.782 513.588c5.103-6.288 10.262-12.123 15.865-17.814 1.867 1.864 3.29 3.584 4.648 5.226l4.872-3.741-5.473-7.236c.818-.823 1.637-1.645 2.89-2.308 2.29 2.203 4.146 4.247 6.418 6.75l4.035-5.556-6.334-6.922c.908-1.01 1.816-2.02 3.15-2.965 2.403 2.226 4.381 4.385 6.496 6.694 4.713-4.473 9.196-8.729 13.997-12.842 4.305 4.805 8.258 9.498 12.288 14.124 4.981 5.719 10.027 11.383 15.168 17.403 2.972 3.98 5.6 7.829 8.712 11.236 7.965 8.72 16.232 17.013 27.819 21.13 12.74 4.525 22 2.383 30.739-7.76-.398 1.578-.563 3.264-1.23 4.72-7.38 16.102-18.162 29.461-32.917 39.324-20.358 13.61-43.308 11.26-60.389-6.311-8.932-9.19-17.274-18.952-25.868-28.47-1.551-1.717-3.03-3.5-5.497-6.356 0 9.931-.998 18.767.435 27.19.683 4.013 5.785 7.457 9.277 10.742 2.131 2.005 4.853 3.603 7.585 4.7 4.382 1.758 7.084 6.331 5.758 10.788-1.357 4.56-6.087 7.171-10.625 5.866-4.514-1.299-7.107-5.968-5.798-10.634.395-1.41 1.106-2.73 1.806-4.416-2.933-3.219-5.79-6.691-9.006-9.792-3.342-3.222-4.79-6.778-4.525-11.505.372-6.642-.585-13.402.226-19.963 1.036-8.393-2.94-13.743-9.257-18.983-.104 2.127-.257 3.855-.262 5.584-.054 19.49-.052 38.979-.16 58.468-.016 2.945.315 5.156 3.1 7.172 4.09 2.96 3.97 8.742.414 12.323-3.49 3.516-9.322 3.459-12.5-.124-3.253-3.667-3.156-9.745.92-12.388 3.086-2 3.468-4.281 3.45-7.44-.129-21.82-.13-43.64-.227-65.914m52.746 14.419c2.762 3.107 5.549 6.193 8.279 9.328 1.947 2.236 3.505 4.258 2.689 7.878-.979 4.337 3.141 8.394 7.653 8.658 4.487.263 8.397-3.345 8.584-7.92.204-4.973-4.215-8.94-9.662-8.195-2.914.4-4.641-.075-6.658-2.534-4.869-5.935-10.324-11.388-15.543-17.035l-1.712 1.284a672 672 0 0 0 6.37 8.536m-11.743-31.373c4.56 5.034 9.173 10.021 13.656 15.123 2.02 2.298 3.626 4.542 3.231 8.227-.418 3.907 3.664 6.837 7.746 6.637 4.046-.198 7.323-3.664 7.07-7.477-.27-4.1-3.716-8.014-7.39-7.012-5.444 1.484-7.737-1.746-10.582-4.978-3.601-4.091-7.378-8.032-11.181-11.938-1.176-1.207-2.814-2.526-2.55 1.418M505.06 596.18c1.817.209 3.75.866 5.404.44.845-.217 2.015-2.885 1.6-3.55-.978-1.57-2.941-3.767-4.285-3.624-3.3.35-4.71 2.755-2.72 6.734m33.776-9.405c1.72-1.074 3.85-1.848 4.961-3.367.457-.624-1.007-3.803-2.096-4.123-1.468-.432-4.75.537-4.89 1.327-.324 1.81.784 3.877 2.025 6.163"/><path fill="#201d6e" d="M651.044 529.01c-8.71 10.14-17.971 12.282-30.711 7.756-11.587-4.116-19.854-12.41-27.82-21.13-3.111-3.406-5.739-7.255-8.684-11.718-.195-27.437-.293-54.059-.391-80.68 9.501-14.356 19.841-27.95 36.61-34.428 10.318-3.986 20.497-4.149 29.624 4.133.35-.006.367.028.33.373.287.623.61.9.933 1.18.912 6.02 2.141 12.015 2.64 18.07.45 5.46.1 10.984-.254 17.09-12.03.857-23.704 1.104-35.382.99a11 11 0 0 1 2.127-2.292c4.519-3.713 5.11-9.197 1.395-13.077-3.237-3.38-8.927-3.367-12.05.028-3.606 3.92-2.801 9.207 1.52 13.16 1.32 1.207 2.325 3.485 2.336 5.28.12 19.15-.018 38.304-.004 57.456.002 2.598-.21 4.464-2.923 6.087-3.472 2.076-4.414 5.802-2.682 9.652 1.783 3.963 5.04 5.735 9.343 4.943 4.13-.76 6.654-3.6 6.545-7.638-.066-2.407-1.853-4.768-2.566-7.479 11.074-.413 21.848-.496 32.621-.58-.113 8.154-.152 16.31-.39 24.46-.063 2.127-.746 4.236-1.545 6.861-.474.856-.546 1.204-.62 1.551 0 0-.029-.046-.002-.049"/><path fill="#62bf41" d="M495.32 428.422c-.823 1.082-1.646 2.164-2.833 3.137-2.134-2.542-3.904-4.973-5.524-7.2-2.805 1.905-5.046 3.428-7.617 4.835-8.646-9.56-17.065-18.919-25.186-28.53-1.422-1.683-2.077-4.389-2.244-6.684-.38-5.195-3.664-8.429-8.664-7.874-4.182.464-6.88 4.166-6.28 8.615.624 4.634 4.991 7.285 9.766 6.588 1.684-.245 4.164.621 5.33 1.868 8.062 8.62 15.814 17.527 23.837 26.183.956 1.031 2.945 1.107 4.78 1.644 2.711 2.128 5.095 4.236 7.479 6.343-.808.957-1.615 1.914-2.955 2.818-2.88-2.253-5.226-4.453-7.672-6.745-4.453 4.844-8.991 9.78-13.817 14.535-7.462-9.018-14.607-17.877-21.846-26.66-.97-1.177-2.41-1.967-3.679-3.315-9.426-13.33-18.906-26.186-33.837-33.46-12.472-6.077-24.77-4.416-33.397 4.473 2.198-4.953 3.89-10.216 6.69-14.802 8.192-13.421 18.808-24.599 32.913-31.926 14.614-7.592 29.365-8.346 43.354 1.365 6.44 4.471 12.677 9.498 18.058 15.172 9.026 9.52 17.294 19.76 26.324 30.144 1.924 1.965 3.405 3.484 4.886 5.003 1.646 2.08 3.292 4.162 4.78 6.72-2.539 2.58-4.92 4.682-7.638 6.65-2.821-4.327-5.004-8.744-7.915-12.613-1.483-1.972-4.592-4.428-6.396-4.037-2.52.546-5.6 3.19-6.4 5.61-.719 2.172.724 5.677 2.263 7.85 3.142 4.437 6.99 8.375 10.468 12.888-1.135 1.931-2.19 3.493-3.458 5.371zm-44.128-45.09 25.8 29.754 1.202-1.002c-.362-.68-.626-1.437-1.1-2.028-8.195-10.241-16.393-20.481-24.647-30.676-2.075-2.562-4.073-4.558-2.715-8.688 1.55-4.712-2.533-9.305-7.441-9.768-4.664-.44-8.67 3.12-9.025 8.018-.321 4.435 3.525 9.605 7.645 8.55 5.68-1.455 7.25 2.293 10.28 5.84"/><path fill="#201d6e" d="M370.98 388.996c8.609-8.892 20.906-10.553 33.378-4.477 14.931 7.275 24.41 20.13 33.784 33.894.331 26.309.67 51.806 1.01 77.303-9.07 9.587-17.471 19.953-27.43 28.505-7.51 6.451-17.293 10.19-27.735 7.693-3.994-.956-7.53-3.828-11.616-5.88-.34-.053-.369-.035-.305-.353-.316-.782-.695-1.245-1.075-1.709 0 0 .031.02.06-.263-.292-.767-.612-1.251-.933-1.735-.434-9.31-.868-18.621-.832-28.449a330 330 0 0 1 30.021-1.106c-.307 6.509 1.55 9.737 6.083 10.926 4.314 1.132 7.546-.45 9.602-4.286 2.13-3.974.877-7.468-3.34-11.294-1.017-.921-1.74-2.717-1.747-4.115-.088-18.321-.003-36.643-.02-54.965-.002-2.567.264-4.394 2.912-6.093 4.41-2.83 4.582-9.012 1.039-12.659-3.429-3.528-8.781-3.58-12.021-.115-3.558 3.803-2.952 9.083 1.012 12.851 1.268 1.206 1.574 3.425 1.843 5.176-10.68.031-20.882.133-31.082.036-1.602-.016-3.195-.937-4.792-1.44.31-11.411.621-22.823 1.307-34.86.54-1.288.707-1.951.873-2.613 0 0 .024.031.005.028"/><path fill="#434a51" d="M314.96 668.941c2.763 4.926 5.372 9.518 8.354 14.766 4.901-8.658 9.762-16.41 13.758-24.585 2.855-5.842 6.578-8.379 13.4-6.289v48.753h-9.688v-28.284l-1.406-.333c-3.815 6.937-7.732 13.82-11.388 20.84-1.284 2.465-3.006 3.7-5.497 2.778-1.472-.546-2.935-1.9-3.76-3.276-4.046-6.74-7.875-13.61-12.737-20.149v28.727h-10.354v-48.986c9.202-1.877 9.323-1.829 13.559 5.685 1.88 3.334 3.738 6.68 5.76 10.353m106.014 26.016c-.007-14.416-.007-28.35-.007-42.306 5.905-1.2 10.02-.358 13.583 4.823 6.087 8.85 13.1 17.063 20.512 26.551v-31.43h10.635v49.037c-5.408 1.034-9.763.687-13.488-4.738-5.985-8.719-12.907-16.795-20.258-26.2v30.987h-10.97c0-2.064 0-4.153-.007-6.724m144.12-22.094c1.741-.002 3.07-.002 4.761-.002v8.489h-22.701v11.718h26.714v9.025h-37.686V652.58h36.886l.44 8.513h-26.282v11.773c5.888 0 11.672 0 17.868-.002m-41.924 14.173c-.014 11.401-.163 11.594-10.798 14.514-21.023 5.772-38.954-9.24-35.469-29.695 2.666-15.645 21.61-25.39 36.081-18.563 3.55 1.674 7.103 3.34 11.274 5.3l-6.875 7.501c-5.932-4.123-12.164-6.403-19.276-4.179-5.799 1.814-9.232 5.838-10.147 11.782-1 6.497.361 12.324 6.021 16.396 5.319 3.825 11.134 4.22 17.027 1.612.977-.432 1.777-2.278 1.86-3.524.246-3.636.088-7.3.088-11.293h10.217c0 3.17 0 6.425-.003 10.149m-121.839 12.696c-3.335-8.172-3.335-8.172-11.765-8.133-1.996.01-4.023.251-5.982-.01-6.3-.838-10.925.542-12.318 7.721-.223 1.145-2.34 2.474-3.75 2.715-2.57.439-5.268.125-8.689.125 2.81-6.322 5.355-12.004 7.86-17.703 4.28-9.732 8.413-19.532 12.934-29.15.672-1.43 3.138-2.853 4.75-2.826 2.918.048 6.574-2.058 8.576 2.507 6.8 15.507 13.851 30.903 21.256 47.34-4.65-1.36-9.119 2.255-12.872-2.586m-13.363-32.135-1.703-4.158-7.866 19.398h15.94c-2.167-5.131-4.151-9.829-6.371-15.24m282.863-9.528c.342 1.56.997 3.266.41 4.122-1.18 1.727-3.037 2.993-4.573 4.411-10.896-7.396-20.051-7.44-26.137-.258-5.064 5.975-4.907 15.832.344 21.61 6.309 6.944 15 6.92 25.413-.316l6.301 5.884c-5.586 7.787-17.39 11.117-28.163 8.173-9.869-2.697-17.533-11.42-18.465-21.347-1.02-10.879 2.559-19.688 12.33-25.314 10.126-5.832 22.548-4.686 32.54 3.034m51.036 32.979c3.623 2.437 1.845 4.054-.298 5.817-9.37 7.707-25.108 7.835-34.298.217-9.483-7.86-12.23-21.294-6.557-32.067 5.907-11.22 19.175-16.573 32.062-12.378 4.215 1.372 7.963 4.18 12.423 6.6l-6.99 6.693c-9.479-7.041-19.39-7.012-25.645.592-5.158 6.27-4.56 16.298 1.015 21.986 6.333 6.461 14.512 6.221 24.4-.863 1.186 1.03 2.42 2.102 3.888 3.403m-136.373-5.053c-.006-11.431-.006-22.363-.006-33.504h10.892v40.282h25.087v9.004H585.5c0-5.078 0-10.18-.005-15.782"/><path fill="#a23091" d="M368.765 478.051c-9.803-.2-19.605-.465-29.409-.525-1.332-.008-2.972.684-3.953 1.603-4.488 4.202-8.899 8.5-13.078 13.006-.911.982-1.044 2.95-1.047 4.465-.01 5.267-3.797 9.35-8.899 9.339-4.783-.011-8.669-4.31-8.372-9.263.301-5.028 4.911-9.523 9.783-8.309 4.345 1.083 6.838-.72 8.888-3.531 7.453-10.224 17.117-14.166 29.689-12.07 5.012.836 10.285.108 16.371.167 12.754.114 24.575.154 36.526.572.055 1.7-.02 3.022-.573 4.33-12.295.063-24.11.14-35.926.216m-58.99 21.574c1.628.33 3.813 1.45 4.748.793 1.233-.868 2.358-3.44 1.91-4.705-.441-1.246-3.067-2.68-4.447-2.43-2.81.505-3.776 2.833-2.211 6.342"/><path fill="#1f9fda" d="M653.417 476.028c8.293.152 16.59.52 24.88.368 4.358-.08 8.027.394 10.871 4.167 1.78 2.362 3.988 4.467 6.285 6.345 1.041.852 2.833 1.365 4.164 1.177 4.266-.602 7.68.47 9.648 4.393 1.681 3.349 1.544 6.547-1.326 9.546-3.012 3.146-6.409 4.193-10.275 2.443-4.015-1.818-4.978-5.333-4.585-9.57.141-1.53-.489-3.423-1.395-4.706-4.806-6.805-11.033-10.283-19.816-9.203-5.724.703-11.613.063-18.367-.01-12.555-.036-24.172-.036-35.957-.304-.045-1.703.078-3.137.684-4.513 12.05-.005 23.62-.069 35.189-.133m46.618 24.479 5.756-3.11c-.897-1.572-1.62-4.28-2.73-4.449-1.67-.254-4.069.829-5.327 2.14-1.982 2.067-.437 3.831 2.3 5.419"/><path fill="#1f9fda" d="M654.094 496.114c-11.266.156-22.04.24-33.438.592-3.486-.913-3.962-3.017-2.453-5.628 12.006-.03 23.53-.135 35.054-.24 4.984.131 10.001-.037 14.936.522 2.378.269 4.87 1.55 6.826 3.016 2.505 1.878 4.518 4.409 6.749 6.653 2.635 2.65 4.754 5.427 9.61 4.353 4.22-.935 7.926 3.48 8.205 8.205.262 4.436-3.575 8.644-8.26 9.059-4.37.386-9.482-3.068-8.935-7.422.78-6.213-3.094-9.074-6.268-13.007-4.04-5.005-8.717-7.168-15.045-6.221-2.117.317-4.322.048-6.98.118m39.83 20.336c-.258-2.01-.13-4.215-.99-5.92-.286-.565-3.852-.458-4.604.442-.998 1.193-.709 3.463-.973 5.27 2 .252 4 .504 6.567.208"/><path fill="#a23091" d="M653.343 460.98c14.618.078 29.237.21 43.854.124 1.096-.006 2.393-1.4 3.238-2.44 3.502-4.309 8.872-5.146 12.685-1.827 3.931 3.42 4.173 9.298.527 12.826-3.805 3.682-9.311 2.945-13.103-1.27-1.18-1.312-3.49-2.236-5.295-2.258-13.633-.166-27.27-.063-41.789-.113-12.4-.123-23.918-.178-35.569-.57-.052-1.297.029-2.255.575-3.269 10.21-.082 19.957-.058 29.701-.183 1.73-.022 3.451-.664 5.176-1.02m58.143 4.051c-.79-1.72-1.192-3.96-2.525-4.956-.744-.555-3.547.544-4.456 1.675-.676.84.001 4.18.42 4.248 1.975.315 4.068-.115 6.56-.967"/><path fill="#1f9fda" d="M368.687 447.15c-8.822.008-17.659-.294-26.459.146-4.99.25-8.532-1.202-11.404-5.176-2.156-2.982-4.268-5.33-9.017-3.572-4.311 1.595-9.047-2.86-9.63-7.79-.54-4.565 2.93-8.967 7.536-9.557 5.016-.643 8.874 2.617 9.732 7.814.4 2.425 1.07 4.983 2.323 7.054 3.14 5.188 7.895 6.725 13.981 6.212 7.436-.628 14.95-.327 22.99-.299 2.128.39 3.696.867 5.268.88 10.402.09 20.805.08 31.395.339.079 1.373-.03 2.51-.625 3.66-12.353.103-24.222.196-36.09.288m-51.69-19.06c.631 1.843.866 4.038 2.059 5.385.608.688 3.344.372 4.37-.438 1.03-.812 1.702-2.878 1.523-4.264-.444-3.447-3.757-3.965-7.952-.684"/><path fill="#a23091" d="M369.02 462.87c-2.929-.266-5.855-.737-8.785-.761-10.652-.087-21.306.026-31.958-.052-2.765-.02-4.813.19-6.523 3.09-2.105 3.569-6.036 3.973-9.789 2.656-3.955-1.387-5.629-4.645-5.396-8.641.239-4.097 2.642-6.831 6.64-7.74 3.825-.87 6.626.793 8.967 3.924.948 1.27 2.96 2.475 4.484 2.471 13.795-.033 27.59-.34 42.29-.635 12.64.275 24.373.616 36.241 1.321.075 1.643.015 2.92-.485 4.195-12.189.054-23.938.113-35.686.171m-56.585-5.996c-2.17 2.194-2.297 4.695.265 6.249 1.212.735 3.8.275 5.115-.61.871-.585 1.286-3.768.685-4.242-1.417-1.118-3.564-1.31-6.065-1.397"/><path fill="#1f9fda" d="M368.45 426.628c1.943.316 3.536 1.237 5.138 1.253 10.2.097 20.403-.005 31.192.39.504 1.584.422 2.737-.137 3.91-8.873-.021-17.271-.144-25.667-.061-3.39.033-6.776.515-10.164.793-5.31-.168-10.645-.083-15.916-.625-2.205-.227-4.543-1.437-6.337-2.826-2.336-1.81-4.243-4.195-6.238-6.418-1.989-2.217-3.888-3.289-7.268-2.463-4.715 1.151-9.393-2.936-9.824-7.653-.421-4.606 3.144-8.89 7.79-9.362 5.061-.513 9.011 2.843 9.455 8.034.723 8.458 8.684 15.736 17.221 15.644 3.47-.037 6.939-.28 10.754-.616m-34.474-18.433c-2.02.832-4.288 1.36-5.907 2.683-.475.388.465 3.91 1.519 4.42 1.393.676 4.73.332 5.107-.517.748-1.683.04-4.013-.719-6.586"/><path fill="#a23091" d="M399.38 492.003c-9.875.335-19.749.67-30.094 1.061-5.29-.084-10.112-.388-14.923-.263-1.437.037-3.234.933-4.195 2.026-3.67 4.176-8.76 7.188-8.573 14.226.119 4.45-5.797 7.213-10.345 6.034-4.441-1.152-7.224-5.925-6.16-10.565 1.093-4.765 5.66-8.324 9.937-6.642 4.082 1.605 6.2.19 8.197-2.778 4.184-6.218 9.813-8.864 17.348-7.639 2.413.392 4.968-.086 8.336-.272 12.084.025 23.29.155 34.301.53a579 579 0 0 1-3.83 4.282m-69.323 16.44c1.707.605 4.017 2.183 4.98 1.586 1.418-.879 2.512-3.314 2.492-5.073-.01-.983-2.579-2.784-3.942-2.735-3.185.114-4.576 2.29-3.53 6.221m323.629-62.514h23.635c.209-1.845.27-3.304.553-4.72.868-4.353 5.385-7.57 9.564-6.894 5.052.818 8.223 4.99 7.602 10.002-.556 4.488-4.518 7.733-9.04 7.569-10.558-.384-21.118-.696-32.607-1.039-12.478-.066-24.026-.13-35.69-.544-.027-1.58.06-2.81.624-4.058 12.105-.117 23.732-.217 35.36-.316m30.556-6.35c-2.516 2.511-3.462 5.16.351 7.097 1.147.583 3.48.177 4.48-.689.93-.803 1.568-3.56.991-4.156-1.266-1.31-3.383-1.798-5.822-2.252m-181.019-46.093c-1.518-1.055-3-2.574-4.6-4.298-.197-8.688-.107-17.177-.46-25.647-.094-2.266-.96-5.032-2.472-6.607-4.305-4.484-7.337-10.385-14.805-11.41-4.667-.641-6.628-6.84-4.718-11.438 1.775-4.275 6.896-6.44 11.238-4.754 4.233 1.644 6.554 6.79 4.904 11.152-.5 1.322-1.398 2.493-2.195 3.875 1.093.985 2.16 2 3.282 2.95 7.52 6.371 11.411 13.921 10.014 24.285-.947 7.021-.161 14.277-.188 21.892m-20.884-52.3c1.886-.715 4.117-1.059 5.49-2.33.557-.516-.28-3.685-1.35-4.485-1.037-.775-3.66-.686-4.754.134-2.319 1.737-2.334 4.182.614 6.682"/><path fill="#201d6e" d="M368.825 433.38c3.375-.745 6.76-1.227 10.151-1.26 8.396-.083 16.794.04 25.778.488.545 3.725.503 7.041.46 10.358-10.402-.023-20.805-.013-31.207-.103-1.572-.014-3.14-.49-4.9-1.057-.217-2.855-.243-5.407-.282-8.426"/><path fill="#a23091" d="M617.944 431.007c11.673-.247 23.347-.494 35.388-.885 3.179-.143 5.988-.143 9.142-.143.545-1.251 1.023-2.628 1.713-3.889 2.773-5.063 8.073-6.215 13.476-2.99 2.708 1.617 3.668 8.932 1.604 12.221-2.568 4.093-8.628 6.073-11.993 2.839-4.014-3.859-8.373-3.03-13.791-3.083-12.486-.037-24.051-.1-35.73-.544-.012-1.43.09-2.478.191-3.526m50.284 1.798c2.444 2.732 5.33 2.637 7.052-.188.764-1.253-.147-4.654-1.436-5.796-2.748-2.437-5.659.236-5.616 5.984"/><path fill="#201d6e" d="M405.058 458.139c-11.735-.341-23.469-.682-35.649-1.05-.496-3.04-.546-6.053-.659-9.503 11.805-.53 23.674-.622 36.122-.256.448 3.909.317 7.359.186 10.809m212.808-23.224c11.566.062 23.131.125 35.204.244.503 3.364.499 6.673.555 10.375a488 488 0 0 1-35.397.235c-.505-3.924-.434-7.389-.362-10.854m-248.878 28.42a449 449 0 0 1 35.79-.157c.461 3.64.409 6.794.357 9.949-11.822-.04-23.643-.08-35.947-.184-.399-3.09-.316-6.117-.2-9.608m248.83-12.683c11.548.064 23.096.128 35.14.269.466 3.098.438 6.118.397 9.599-1.737.816-3.458 1.458-5.188 1.48-9.744.125-19.49.101-29.827-.29-.568-3.965-.545-7.511-.522-11.058"/><path fill="#a23091" d="M495.656 542.973c.123 5.968.657 11.97.168 17.887-.199 2.417-2.351 4.876-4.095 6.903-1.63 1.893-2.601 3.178-1.448 5.967 2.106 5.095-.672 9.938-5.778 11.22-4.75 1.191-9.468-1.903-10.408-6.826-.987-5.171 2.299-9.72 7.483-10.358 5.607-.69 9.453-4.907 9.486-10.437.026-4.485.02-8.969.507-13.948 1.68-.466 2.883-.437 4.085-.408m-15.353 36.932c1.862-.418 4.13-.358 5.42-1.451.672-.57.13-3.607-.818-4.714-.708-.827-4.118-.81-4.292-.37-.722 1.835-.673 3.973-.31 6.535"/><path fill="#201d6e" d="M618.024 465.79c11.518.054 23.036.109 35.062.198.452 3.065.395 6.094.334 9.581a420 420 0 0 1-35.24.125c-.405-3.653-.28-6.779-.156-9.905m35.262 24.611a426 426 0 0 1-35.145.226c-.505-3.58-.467-6.632-.429-9.684 11.617 0 23.234 0 35.358.068.42 3.03.332 5.991.216 9.39m-249.882-2.924c-11.206-.13-22.412-.26-34.058-.456-.474-2.737-.508-5.408-.562-8.524a472 472 0 0 1 35.986-.208c-.083 3.373-.725 6.28-1.366 9.188"/><path fill="#434a51" d="M500.665 407.454c2.381-2.103 4.762-4.205 7.468-6.489 1.232.721 2.14 1.623 3.316 2.86 2.892 2.853 2.138 5.177-.143 7.412-1.267 1.242-2.533 2.486-4.193 3.46-2.408-2.144-4.423-4.018-6.491-6.113-.09-.531-.057-.834.043-1.13"/><path fill="#201d6e" d="M495.703 542.506c-1.25.438-2.452.409-4.014.418-.409-3.348-.458-6.734-.473-10.595 1.274-2.33 2.514-4.184 4.063-6.12.363 5.223.417 10.527.424 16.297"/><path fill="#62bf41" d="M370.663 389.151c.147.479-.02 1.142-.447 2.06-.13-.455.002-1.165.447-2.06"/><path fill="#a23091" d="M370.092 522.27q.522.28.955 1.457c-.35-.187-.665-.675-.955-1.458m.883 2.012c.396.155.775.618 1.103 1.39-.407-.154-.763-.617-1.103-1.39m279.969-130.124c-.332.06-.655-.218-.94-.822.34-.056.645.214.94.822"/><path fill="#1f9fda" d="M651.25 528.896c-.13-.185-.058-.533.265-1.014.146.195.042.524-.265 1.014"/><path fill="#434a51" d="M472.339 457.314c-2.9-2.737-5.49-5.66-8.205-8.88 4.412-5.233 8.95-10.17 13.403-15.014 2.446 2.292 4.793 4.492 7.433 6.952-3.91 5.76-8.115 11.259-12.631 16.942"/><path fill="#201d6e" d="M548.365 463.844c2.654 2.674 5.018 5.506 7.523 8.612-4.343 4.531-8.826 8.787-13.539 13.26-2.115-2.309-4.093-4.468-6.268-6.946 3.866-5.135 7.93-9.952 12.284-14.926"/><path fill="#62bf41" d="M500.675 408.804c2.015 1.875 4.03 3.75 6.087 5.971-2.552 3.395-5.145 6.442-8.211 9.322-1.865-2.395-3.257-4.621-4.592-7.197-1.04-2.86-2.268-5.323-3.189-7.897-.686-1.916-.974-3.975-1.44-5.97 2.262.71 4.644 1.176 6.748 2.207 1.706.835 3.077 2.35 4.597 3.564"/><path fill="#1f9fda" d="M504.974 467.372c-4.637-2.49-6.44-6.417-4.797-10.644.956-2.458 3.991-4.753 6.613-5.757 3.429-1.313 7.028.595 8.255 3.886 1.04 2.788 1.335 6.637.208 9.268-1.696 3.961-5.862 4.396-10.28 3.247m5.884-10.9c-2.019.112-4.31-.287-5.926.577-.68.363-.524 3.806.359 5.084.688.996 3.402 1.538 4.664.996 2.716-1.167 3.19-3.562.903-6.657"/><path fill="#434a51" d="m479.675 429.31 7.288-4.95c1.62 2.226 3.39 4.657 5.323 7.411-1.063 1.96-2.289 3.596-3.818 5.404-2.688-1.935-5.072-4.043-7.95-6.427-.61-.663-.727-1.05-.843-1.438"/><path fill="#201d6e" d="M532.44 482.152c2.265 2.022 4.266 4.21 6.597 6.757l-4.035 5.556c-2.272-2.503-4.127-4.547-6.152-6.976.996-1.982 2.16-3.577 3.59-5.337m-7.01 8.025c1.937 2.058 3.61 4.27 5.737 7.082L526.295 501c-1.358-1.642-2.78-3.362-4.38-5.457.968-1.988 2.11-3.6 3.516-5.366"/><path fill="#434a51" d="M493.902 417.249a842 842 0 0 1 4.364 7.035c-.642 1.546-1.473 2.737-2.625 4.033-2.418-1.862-4.514-3.83-6.751-5.929 1.269-1.878 2.323-3.44 3.717-5.317.658-.15.976.014 1.295.178"/><path fill="#a23091" d="M576.974 381.87c1.348-1.854 2.571-3.655 4.272-4.549.505-.265 3.116 1.876 3.367 3.182.247 1.292-1.477 4.248-1.973 4.17-1.947-.307-3.75-1.523-5.666-2.802M439.52 538.722c-2.534-2.969-2.454-5.713.86-6.989 1.247-.48 4.115.917 4.983 2.268 1.906 2.964-.875 5.37-5.842 4.721m116.655-144.707c-2.237.348-4.385.741-6.244.179-.61-.185-1.067-3.148-.497-4.296.537-1.079 2.882-2.3 3.784-1.92 1.491.626 2.54 2.433 3.59 3.877.241.331-.268 1.208-.633 2.16m-90.934 130.242c1.362-.489 2.99-1.269 3.471-.82 1.397 1.306 2.9 3.003 3.212 4.752.155.87-2.686 3.349-3.33 3.08-1.708-.713-3.12-2.402-4.295-3.97-.362-.482.424-1.824.942-3.042m45.86-67.521c2.042 2.831 1.568 5.226-1.148 6.393-1.262.542-3.976 0-4.664-.996-.883-1.278-1.038-4.721-.36-5.084 1.617-.864 3.908-.465 6.172-.313"/><path fill="#1f9fda" d="M581.853 545.847c-1.594 1.554-3.045 3.073-4.814 3.712-.63.228-2.882-1.666-2.894-2.61-.021-1.667.669-4.287 1.844-4.838 2.893-1.358 5.004.301 5.864 3.736m-14.9-28.326c2.324-.796 4.534-1.613 6.61-1.352.59.074 1.616 3.758.944 4.918-.735 1.27-3.851 2.57-4.776 1.996-1.48-.919-2.01-3.37-2.778-5.562"/><path fill="#201d6e" d="M617.326 424.935c-3.829.773-6.178-.562-5.628-4.14.219-1.423 2.648-2.506 4.071-3.744 1.224 1.62 2.665 3.132 3.54 4.921.266.546-1.028 1.853-1.983 2.963m-4.823 81.561c.083-2.285.106-4.468.993-6.21.233-.458 3.597-.066 4.684.89.861.758 1.002 4.081.488 4.341-1.733.878-3.9.898-6.165.98"/><path fill="#62bf41" d="M439.44 372.812c-2.507-2.96-2.672-5.524.899-6.942 1.064-.422 3.263.162 3.923 1.045.804 1.078 1.235 3.688.57 4.33-1.166 1.121-3.29 1.248-5.393 1.567m8.111 18.373c-.107 2.278-.124 4.468-1.064 6.14-.297.529-3.818.238-4.509-.688-.94-1.261-.581-3.49-.78-5.305 2.03-.145 4.058-.29 6.353-.147m38.613 2.523c3.255.221 4.942 1.837 4.14 4.537-.464 1.56-2.294 3.678-3.624 3.764-1.516.098-3.16-1.787-4.748-2.81 1.269-1.827 2.538-3.654 4.232-5.491"/><path fill="#201d6e" d="M408.67 419.854c-3.328.002-5.283-1.456-4.809-4.424.225-1.41 1.82-3.352 3.103-3.63 1.296-.28 4.3 1.333 4.246 1.885-.209 2.083-1.358 4.072-2.54 6.17m-.785 79.34c-3.323-.33-5.093-2.03-4.389-4.899.324-1.32 2.194-2.992 3.509-3.131 1.297-.138 3.442 1.134 4.04 2.36 1.264 2.59.197 4.755-3.16 5.67"/></svg>
